# xmcd CD database file
#
# Track frame offsets:
#	150
#	51764
#	65073
#	89152
#	110800
#	164641
#	198686
#	219880
#	247126
#	283870
#
# Disc length: 4243 seconds
#
# Revision: 0
# Processed by: cddbd v1.5.2PL0 Copyright (c) Steve Scherf et al.
# Submitted via: CDex 1.70beta2
#
DISCID=a910910a
DTITLE=Innes Sibun - The Box Set
DYEAR=1900
DGENRE=Blues
TTITLE0=A Million Miles Away
TTITLE1=Station Blues
TTITLE2=I Want You Back
TTITLE3=Someone Like You
TTITLE4=I'm Ready
TTITLE5=Desert Rain
TTITLE6=Sooner Or Later
TTITLE7=Don't You Lie To Me
TTITLE8=Sweet Disposition
TTITLE9=Fisherman's Wharf
EXTD=
EXTT0=
EXTT1=
EXTT2=
EXTT3=
EXTT4=
EXTT5=
EXTT6=
EXTT7=
EXTT8=
EXTT9=
PLAYORDER=
